<?xml version="1.0" standalone="no"?>
<!DOCTYPE svg PUBLIC "-//W3C//DTD SVG 20010904//EN"
 "http://www.w3.org/TR/2001/REC-SVG-20010904/DTD/svg10.dtd">
<svg version="1.0" xmlns="http://www.w3.org/2000/svg"
 width="749.000000pt" height="749.000000pt" viewBox="0 0 749.000000 749.000000"
 preserveAspectRatio="xMidYMid meet">

<g transform="translate(0.000000,749.000000) scale(0.100000,-0.100000)"
fill="#000000" stroke="none">
<path d="M3435 5819 c-173 -23 -356 -89 -483 -171 -165 -109 -268 -224 -346
-388 -54 -115 -74 -192 -82 -326 -22 -337 124 -604 470 -864 123 -93 263 -179
597 -371 800 -457 1042 -648 1189 -937 108 -213 92 -500 -41 -725 -218 -368
-735 -533 -1224 -392 -173 51 -306 125 -424 239 -81 79 -129 144 -187 256
l-39 75 -3 -85 c-2 -47 -1 -148 3 -226 l7 -141 86 -36 c193 -81 389 -140 561
-169 183 -31 462 -31 619 0 525 105 886 446 987 931 51 245 18 495 -95 715
-119 232 -331 434 -672 642 -128 78 -185 111 -633 364 -556 315 -746 466 -855
680 -36 70 -50 137 -50 235 0 168 57 303 180 426 117 117 256 179 469 210 100
14 285 6 379 -16 336 -80 579 -317 712 -695 13 -36 28 -69 33 -75 10 -10 1
432 -12 555 l-6 65 -114 48 c-195 82 -362 132 -541 162 -115 19 -389 27 -485
14z"/>
<path d="M3783 4540 c-64 -9 -203 -40 -203 -45 0 -2 16 -13 35 -25 34 -21 35
-21 112 -4 54 11 123 16 223 16 128 0 159 -4 262 -30 342 -88 602 -332 728
-682 13 -36 27 -69 32 -74 11 -13 10 72 -2 334 -15 320 -7 292 -93 330 -177
80 -462 156 -672 180 -102 11 -344 11 -422 0z"/>
<path d="M2444 3088 c4 -150 9 -308 12 -351 l6 -77 67 -39 c272 -158 581 -273
867 -321 237 -40 538 -28 729 30 81 25 196 69 208 79 4 4 -3 17 -16 29 l-24
23 -49 -22 c-74 -32 -193 -66 -280 -80 -112 -18 -339 -15 -451 5 -188 34 -404
126 -548 233 -211 157 -369 382 -481 685 -16 43 -33 78 -38 78 -4 0 -5 -122
-2 -272z"/>
</g>
</svg>
